<svg width="16" height="16" viewBox="0 0 16 16" fill="none" xmlns="http://www.w3.org/2000/svg">
<path d="M5.5 10.5641C4.0061 9.67812 3 8.02187 3 6.125C3 3.29531 5.23933 1 8 1C10.7607 1 13 3.29531 13 6.125C13 8.02187 11.9939 9.67812 10.5 10.5641V12.375C10.5 12.6516 10.282 12.875 10.0122 12.875H5.9878C5.71799 12.875 5.5 12.6516 5.5 12.375V10.5641ZM6.17073 13.875H9.82927C9.89634 13.875 9.95122 13.9312 9.95122 14V14.5C9.95122 14.7766 9.73323 15 9.46341 15H6.53659C6.26677 15 6.04878 14.7766 6.04878 14.5V14C6.04878 13.9312 6.10366 13.875 6.17073 13.875Z" fill="#847E94"/>
</svg>
